# xmcd
#
# Track frame offsets: 
#        150
#        17162
#        38660
#        49669
#        68973
#        85292
#        107049
#        145741
#        166645
#        185419
#        208621
#
# Disc length: 2982 seconds
#
# Revision: 0
# Processed by: cddbd v1.5.2PL0 Copyright (c) Steve Scherf et al.
# Submitted via: ExactAudioCopy v0.95b4
#
DISCID=8d0ba40b
DTITLE=Lesley - Feels Like Home
DYEAR=2007
DGENRE=Blues
TTITLE0=Hit The Ground
TTITLE1=What Kind Of World
TTITLE2=You Can Close Your Eyes
TTITLE3=Time Will Do The Talking
TTITLE4=Hate To Loose Your Lovin'
TTITLE5=Wounded Heart
TTITLE6=Indiscriminate Act Of Kindness
TTITLE7=Thinking Over
TTITLE8=Feels Like Home
TTITLE9=People Get Ready
TTITLE10=The Water Is Wide
EXTD=Lesley van der Aa\nEva Jane Smeenk\nSally Flissinger\nRemko Kuhne
EXTD=\nMarc Vandes\nDavid van den Boogaard\nRene van Mierlo\nEmiel Sch
EXTD=olsberg
EXTT0=
EXTT1=
EXTT2=
EXTT3=
EXTT4=
EXTT5=
EXTT6=
EXTT7=
EXTT8=
EXTT9=
EXTT10=
PLAYORDER=
